<svg xmlns="http://www.w3.org/2000/svg" width="32" height="32" viewBox="0 0 16 16"><path fill="currentColor" fill-rule="evenodd" d="M2 1.5a.5.5 0 0 1 .5-.5H9a.5.5 0 0 1 .354.146l2.5 2.5A.5.5 0 0 1 12 4v2h-1V5H8.5a.5.5 0 0 1-.5-.5V2H3v12h8v-.5h1v1a.5.5 0 0 1-.5.5h-9a.5.5 0 0 1-.5-.5zm7 .707V4h1.793zM4 7.5a.5.5 0 0 1 .5-.5H5a.5.5 0 0 1 .474.342L6 8.919l.526-1.577A.5.5 0 0 1 7 7h.5a.5.5 0 0 1 .5.5V12H7V9.081l-.526 1.577a.5.5 0 0 1-.948 0L5 9.081V12H4zM9 7h2a.5.5 0 0 1 .5.5V10a.5.5 0 0 1-.5.5H9.5V12h-1V7.5A.5.5 0 0 1 9 7m.5 1v1.5h1V8zm2.5 2V7h1v2.5h.5V7h1v2.5h.5v1h-.5V12h-1v-1.5h-1a.5.5 0 0 1-.5-.5" clip-rule="evenodd"/></svg>